<?xml version="1.0" encoding="UTF-8" standalone="no"?>
<!-- Generator: Adobe Illustrator 23.0.3, SVG Export Plug-In . SVG Version: 6.00 Build 0)  -->

<svg
   xmlns:dc="http://purl.org/dc/elements/1.1/"
   xmlns:cc="http://creativecommons.org/ns#"
   xmlns:rdf="http://www.w3.org/1999/02/22-rdf-syntax-ns#"
   xmlns:svg="http://www.w3.org/2000/svg"
   xmlns="http://www.w3.org/2000/svg"
   xmlns:sodipodi="http://sodipodi.sourceforge.net/DTD/sodipodi-0.dtd"
   xmlns:inkscape="http://www.inkscape.org/namespaces/inkscape"
   version="1.1"
   id="Layer_1"
   x="0px"
   y="0px"
   viewBox="0 0 189.58 91.940681"
   xml:space="preserve"
   sodipodi:docname="cthulhu.svg"
   width="189.58"
   height="91.940681"
   inkscape:version="0.92.2 5c3e80d, 2017-08-06"><metadata
     id="metadata3777"><rdf:RDF><cc:Work
         rdf:about=""><dc:format>image/svg+xml</dc:format><dc:type
           rdf:resource="http://purl.org/dc/dcmitype/StillImage" /><dc:title></dc:title></cc:Work></rdf:RDF></metadata><defs
     id="defs3775" /><sodipodi:namedview
     pagecolor="#ffffff"
     bordercolor="#666666"
     borderopacity="1"
     objecttolerance="10"
     gridtolerance="10"
     guidetolerance="10"
     inkscape:pageopacity="0"
     inkscape:pageshadow="2"
     inkscape:window-width="1019"
     inkscape:window-height="710"
     id="namedview3773"
     showgrid="false"
     fit-margin-top="0"
     fit-margin-left="0"
     fit-margin-right="0"
     fit-margin-bottom="0"
     inkscape:zoom="2.568"
     inkscape:cx="79.153676"
     inkscape:cy="34.953676"
     inkscape:window-x="0"
     inkscape:window-y="0"
     inkscape:window-maximized="0"
     inkscape:current-layer="Layer_1" /><style
     type="text/css"
     id="style3758">
	.st0{fill:#7CC242;}
</style><path
     d="m 166.75,62.360683 c -0.33,-0.58 -1.05,-0.82 -1.71,-0.83 -3.26,-0.05 -3.59,-0.36 -5.98,-2.62 -1.67,-1.57 -3.16,-3.34 -4.46,-5.22 -2.27,-3.27 -4.98,-6.3 -8.3,-8.51 -3.82,-2.53 -9.9,-4.37 -14.46,-4.08 -0.96,0.06 -10.89,1.27 -10.91,1.99 0.1,-3.77 3.03,-6.76 5.06,-9.95 3.96,-6.2 4.97,-15.15 0.11,-21.12 C 121.55,6.4306828 114.67,3.2206828 107.72,1.7906828 103.73,0.97068279 99.22,0.24068279 94.8,0.26068279 c -4.42,-0.02 -8.93,0.71 -12.92,1.53000001 -6.95,1.42 -13.83,4.63 -18.38,10.2300002 -4.87,5.98 -3.85,14.92 0.1,21.12 0.8,1.25 1.7,2.43 2.53,3.65 0.82,1.2 1.59,2.45 2.06,3.83 0.14,0.42 0.29,0.85 0.35,1.29 0.07,0.44 0.01,0.85 0.02,1.29 -0.02,-0.73 -9.95,-1.94 -10.91,-1.99 -4.56,-0.28 -10.64,1.55 -14.46,4.08 -3.32,2.2 -6.03,5.23 -8.3,8.51 -1.31,1.88 -2.8,3.65 -4.46,5.22 -2.39,2.26 -2.72,2.58 -5.98,2.62 -0.67,0.01 -1.39,0.25 -1.71,0.83 -1.36,2.41 6.87,2.4 8.06,2.24 3.34,-0.45 6.58,-1.9 9.25,-3.95 1.95,-1.5 3.49,-3.44 5.09,-5.31 2.54,-2.97 4.94,-5.09 8.55,-6.53 2.14,-0.86 4.09,-1.13 6.4,-1.15 1.57,-0.01 3.22,0.14 4.79,0.28 0.56,0.05 1.12,0.1 1.69,0.13 0.23,0.01 0.46,0.02 0.69,0.03 -1.34,1.36 -2.75,2.59 -4.52,3.61 -2.59,1.5 -5.43,2.51 -8.1,3.85 -3.43,1.72 -6.89,3.45 -9.83,5.91 -2.94,2.46 -5.36,5.73 -6.05,9.5 -0.17,0.93 0.01,9.86 1.94,7.91 0.37,-0.38 0.41,-0.96 0.42,-1.49 0.3,-11.62 14.42,-11.75 21.27,-17.25 2.31,-1.86 4.64,-3.58 7.04,-5.21 -0.81,1.51 -1.82,2.91 -3.01,4.14 -3.83,3.98 -7.85,7.48 -9.72,12.89 -0.92,2.67 -1.16,5.68 -0.42,8.42 0.46,1.73 1.22,3.17 2.64,4.3 0.21,0.17 0.44,0.33 0.7,0.4 0.26,0.08 0.56,0.06 0.78,-0.11 0.51,-0.38 -0.66,-2.5 -0.77,-3.2 -0.87,-5.7 3.86,-11.48 7.77,-15.05 1.92,-1.75 3.79,-3.67 5.57,-5.57 0.61,-0.65 1.91,-1.9 3.08,-3.22 -0.35,2.9 -0.94,5.88 -1.61,8.69 1.95,-0.8 3.81,-1.83 5.53,-3.05 -1.39,4.09 -3.09,8.08 -5.06,11.93 1.63,-0.64 3.25,-1.27 4.88,-1.91 -2.31,6.09 -4.65,12.16 -6.97,18.24 3.99,-4.96 6.82,-8.34 11.69,-15.06 2.26,-3.12 3.62,-5.28 6.31,-9.89 -2.08,0.34 -4.37,1.28 -6.38,2.05 1.23,-2.16 4.9,-6.98 6.26,-8.37 0.87,-0.89 1.99,-1.99 4.1,-1.99 2.11,0 3.22,1.1 4.1,1.99 1.36,1.39 5.02,6.21 6.26,8.37 -2.01,-0.76 -4.29,-1.7 -6.38,-2.05 2.69,4.61 4.06,6.78 6.31,9.89 4.87,6.72 7.7,10.1 11.69,15.06 -2.32,-6.08 -4.66,-12.15 -6.97,-18.24 1.63,0.64 3.25,1.27 4.88,1.91 -1.97,-3.85 -3.67,-7.84 -5.06,-11.93 1.72,1.22 3.58,2.24 5.53,3.05 -0.79,-3.32 -1.49,-6.89 -1.79,-10.28 2.4,2.04 4.28,4.67 5.42,7.6 2.01,5.14 3.5,10.27 7.63,14.23 2.04,1.96 4.67,3.43 7.47,3.92 1.76,0.31 3.39,0.22 5.01,-0.59 0.24,-0.12 0.48,-0.26 0.66,-0.47 0.18,-0.21 0.29,-0.49 0.23,-0.75 -0.14,-0.62 -2.55,-0.45 -3.22,-0.64 -5.54,-1.6 -8.81,-8.31 -10.41,-13.37 -0.78,-2.48 -1.74,-4.98 -2.73,-7.39 -0.68,-1.67 -2.36,-6.93 -4.05,-7.73 4.51,2.13 7.08,6.91 10.19,10.77 2.41,2.98 4.84,5.99 7.87,8.34 3.03,2.35 6.74,4.01 10.57,3.88 0.94,-0.03 9.63,-2.11 7.31,-3.58 -0.45,-0.28 -1.03,-0.19 -1.54,-0.09 -11.42,2.18 -14.55,-11.59 -21.39,-17.1 -2.61,-2.11 -5.35,-4.06 -8.2,-5.85 0.96,0.6 3.99,0.02 5.23,0.03 2.31,0.02 4.26,0.29 6.4,1.15 3.61,1.44 6.01,3.56 8.55,6.53 1.6,1.87 3.14,3.81 5.09,5.31 2.66,2.05 5.91,3.49 9.25,3.95 1.17,0.16 9.41,0.17 8.04,-2.24 z"
     id="path3760"
     inkscape:connector-curvature="0" /><g
     id="g3766"
     transform="translate(-55.27,-83.589317)"><path
       d="m 216.75,85.1 c 7.91,-2.71 17.56,-2.17 22.94,4.9 3.96,5.2 4.86,12.41 5.16,18.75 -1.56,-4.49 -6.83,-7.04 -11.34,-5.55 -4.44,1.47 -7.34,6.29 -7.09,10.96 -3.73,-4.11 -9.06,-7.26 -14.59,-6.69 -3.03,0.31 -5.65,1.87 -7.26,4.42 -0.84,1.32 -1.39,2.66 -1.74,4.18 -0.1,0.46 -0.92,3.82 -0.58,4.06 -2.83,-1.98 -5.99,-3.56 -9.38,-4.2 -7.06,-1.35 -13.07,2.7 -18.96,6.03 -0.21,0.12 -0.45,0.24 -0.68,0.17 -0.21,-0.07 -0.34,-0.28 -0.45,-0.47 -0.98,-1.76 -1.97,-3.51 -2.95,-5.27 -0.12,-0.22 -0.25,-0.45 -0.2,-0.7 0.06,-0.34 0.42,-0.53 0.73,-0.67 5.06,-2.25 10.71,-3.91 14.95,-7.52 9.26,-7.89 17.05,-15.53 28.05,-20.99 1.08,-0.54 2.21,-1.01 3.39,-1.41 z"
       id="path3762"
       inkscape:connector-curvature="0" /><path
       d="M 83.37,85.1 C 75.46,82.39 65.81,82.93 60.43,90 c -3.96,5.2 -4.86,12.41 -5.16,18.75 1.56,-4.49 6.83,-7.04 11.34,-5.55 4.44,1.47 7.34,6.29 7.09,10.96 3.73,-4.11 9.06,-7.26 14.59,-6.69 3.03,0.31 5.65,1.87 7.26,4.42 0.84,1.32 1.39,2.66 1.74,4.18 0.1,0.46 0.92,3.82 0.58,4.06 2.83,-1.98 5.99,-3.56 9.38,-4.2 7.06,-1.35 13.07,2.7 18.96,6.03 0.21,0.12 0.45,0.24 0.68,0.17 0.21,-0.07 0.34,-0.28 0.45,-0.47 0.98,-1.76 1.97,-3.51 2.95,-5.27 0.12,-0.22 0.25,-0.45 0.2,-0.7 -0.06,-0.34 -0.42,-0.53 -0.73,-0.67 -5.06,-2.25 -10.71,-3.91 -14.95,-7.52 C 105.55,99.61 97.76,91.97 86.76,86.51 85.68,85.97 84.54,85.5 83.37,85.1 Z"
       id="path3764"
       inkscape:connector-curvature="0" /></g><path
     class="st0"
     d="m 76.91,42.230683 -0.2,-0.37 c 5.51,-0.05 10.89,3.45 13.08,8.51 -5.35,-0.01 -10.57,-3.31 -12.88,-8.14 z"
     id="path3768"
     inkscape:connector-curvature="0"
     style="fill:#7cc242" /><path
     class="st0"
     d="m 112.66,42.230683 c -2.31,4.83 -7.53,8.13 -12.88,8.14 2.18,-5.06 7.57,-8.56 13.08,-8.51 z"
     id="path3770"
     inkscape:connector-curvature="0"
     style="fill:#7cc242" /></svg>