<?xml version="1.0" standalone="yes"?><svg xmlns="http://www.w3.org/2000/svg" width="900" height="759" style="zoom: 0.5;"><path style="fill:#1a181d; stroke:none;" d="M40,379 C48.6141,371.355 54.6629,361.694 64,354.5 C82.1967,340.479 105.119,333.883 128,336.171 C135.488,336.919 142.706,339.328 150,341 C145.042,329.494 138.399,318.854 134.053,307 C126.899,287.488 121.659,264.896 123.09,244 C123.868,232.635 126.449,222.026 129,211 C123.254,218.113 120.248,229.319 117.586,238 C112.775,253.691 108.312,269.414 109.039,286 C109.309,292.14 111.47,297.927 112,304 C95.7935,304.698 80.1354,312.656 64,313 C64,259.181 77.6119,202.401 103.309,155 C109.769,143.083 117.357,131.597 125.801,121 C130.679,114.878 137.71,109.055 141,102 C143.15,109.272 142.351,117.48 143.428,125 C146.034,143.19 149.015,161.158 153.475,179 C165.271,226.183 184.961,270.594 210.001,312.17 C220.337,329.333 231.408,347.199 245,362 C222.603,362 200.26,362.926 180,373.706 C173.049,377.405 165.838,381.679 161,388 C172.354,385.892 184.482,387 196,387 C224.324,387 253.73,388.585 281,397.025 C289.994,399.809 298.841,402.975 307,407.731 C310.459,409.748 314.513,411.933 315.697,416.039 C317.427,422.042 317,428.831 317,435 C317,453.229 313.117,471.701 304.741,488 C298.287,500.559 288.643,510.28 287.171,525 C284.33,553.389 300.846,590.334 332,595 C325.159,584.014 317.362,574.446 313.079,562 C298.464,519.531 332.5,486.752 351,452 C355.723,455.629 360.753,458.863 366,461.691 C369.513,463.584 373.792,464.847 376.298,468.133 C379.766,472.681 380.684,479.636 382.34,485 C387.771,502.583 390.397,522.828 386.547,541 C382.226,561.394 363.996,574.15 356.142,593 C336.274,640.683 358.229,695.052 408,712 C403.947,704.205 396.379,698.092 391.156,691 C376.566,671.193 362.256,644.43 368.236,619 C379.317,571.875 442.968,544.695 433,491 C440.272,494.138 447.002,499.159 453,504.3 C458.375,508.907 462.987,514.248 467.09,520 C490.246,552.46 476.803,592.333 472,628 C477.694,623.024 482.132,616.26 486.329,610 C502.578,585.767 509.58,554.168 499.921,526 C494.083,508.974 483.062,495.194 470,483.09 C453.28,467.597 431.082,457.444 410,449.424 C394.068,443.364 377.334,438.918 364,427.703 C333.539,402.084 323.536,364.125 320.91,326 C317.971,283.317 324.316,238.122 357.039,207.17 C396.741,169.617 453.483,158.562 506,168.389 C532.199,173.291 557.633,183.79 575.829,204 C601.854,232.904 608.776,275.419 603.711,313 C599.383,345.118 580.973,371.727 560.753,396 C547.547,411.854 529.88,431.834 538.468,454 C540.556,459.39 543.954,463.925 548.015,467.985 C564.939,484.91 590.693,481.616 610,470.571 C619.154,465.334 626.464,457.989 635,452 C629.551,450.345 621.569,453.913 616,454.999 C604.755,457.194 589.137,459.393 578,455.945 C571.675,453.987 561.354,447.998 562.908,440 C564.18,433.457 570.481,427.158 574.374,422 C584.552,408.516 595.934,396.252 605.136,382 C630.745,342.336 637.851,290.585 625.846,245 C618.495,217.089 605.256,192.192 582.999,173.296 C561.425,154.98 534.529,145.601 507,140.919 C446.834,130.686 378.045,144.901 335.09,191 C292.155,237.076 287.037,305.812 299.661,365 C303.095,381.101 310.507,395.398 315,411 C287.697,383.639 264.347,351.906 244.189,319 C208.308,260.427 182.225,195.227 172.428,127 C168.857,102.129 168,77.1112 168,52 C161.104,54.1822 155.05,58.7151 149,62.5864 C133.759,72.3395 119.766,84.2144 107,97 C49.9762,154.112 26.5667,231.696 30.0394,311 C30.7735,327.765 33.6585,344.48 36.4352,361 C37.4511,367.044 39.5004,372.883 40,379 M738,52 C738,77.5377 737.457,102.69 733.728,128 C722.872,201.696 693.458,270.664 653.308,333 C640.722,352.541 626.644,371.31 611.573,389 C604.666,397.106 596.106,404.332 590,413 C599.15,408.672 607.352,403.126 617,399.692 C646.052,389.353 677.424,387 708,387 C720.152,387 733.024,385.777 745,388 C739.106,379.806 729.211,374.499 720,370.8 C701.028,363.182 682.192,362 662,362 C679.54,337.6 696.822,313.535 711.113,287 C727.002,257.499 739.112,226.032 748.72,194 C757.478,164.804 764,133.55 764,103 C770.158,107.429 775.019,114.029 779.651,120 C788.074,130.859 795.682,141.939 802.306,154 C828.606,201.89 842,258.478 842,313 C825.832,311.713 810.225,304.337 794,304 C796.22,293.246 797.903,283.082 796.83,272 C794.874,251.784 786.437,233.911 780,215 C778.378,220.34 781.419,228.483 782.385,234 C783.821,242.203 783.482,251.697 782.911,260 C780.896,289.249 769.448,315.469 756,341 C769.472,337.912 782.029,335.127 796,336.09 C823.74,338 850.47,355.667 865,379 C868.426,373.391 868.899,365.4 870.199,359 C873.92,340.689 874.82,322.539 876.089,304 C881.358,227.066 852.506,150.506 798,96 C786.032,84.0321 773.05,73.1401 759,63.6697 C752.493,59.2839 745.585,54.2313 738,52  z "></path><path style="fill:#409a1e; stroke:none;" d="M866,212 L867,213 L866,212 M39,213 L40,214 L39,213 M79,213 L80,214 L79,213 M128,213 L129,214 L128,213 M163,213 L164,214 L163,213 M583,213 L584,214 L583,213 M614,213 L615,214 L614,213 M712,213 L713,214 L712,213 M742.333,213.667 C742.278,213.722 742.222,214.778 742.667,214.333 C742.722,214.278 742.778,213.222 742.333,213.667 M126,214 L127,215 L126,214 M350,214 L351,215 L350,214 M584,214 L585,215 L584,214 M778,214 L778,216 C779.635,215.455 779.455,215.635 780,214 L778,214 M827.333,214.667 C827.278,214.722 827.222,215.778 827.667,215.333 C827.722,215.278 827.778,214.222 827.333,214.667 M194,215 L195,216 L194,215 M316,215 L317,216 L316,215 M615,215 L616,216 L615,215 M38.3333,216.667 C38.2779,216.722 38.2221,217.778 38.6667,217.333 C38.7222,217.278 38.7779,216.222 38.3333,216.667 M78.3333,216.667 C78.2778,216.722 78.2222,217.778 78.6667,217.333 C78.7223,217.278 78.7778,216.222 78.3333,216.667 M127,216 L128,217 L127,216 M164,216 L165,217 L164,216 M348,216 L349,217 L348,216 M711,216 L712,217 L711,216 M741.333,216.667 C741.278,216.722 741.222,217.778 741.667,217.333 C741.722,217.278 741.778,216.222 741.333,216.667 M780,216 L781,217 L780,216 M125,217 L126,218 L125,217 M315,217 L316,218 L315,217 M347,217 L348,218 L347,217 M586,217 L587,218 L586,217 M616,217 L617,218 L616,217 M165.333,218.667 C165.278,218.722 165.222,219.778 165.667,219.333 C165.722,219.278 165.778,218.222 165.333,218.667 M195,218 L196,219 L195,218 M779,218 L780,219 L779,218 M781.333,218.667 C781.278,218.722 781.222,219.778 781.667,219.333 C781.722,219.278 781.778,218.222 781.333,218.667 M828.333,218.667 C828.278,218.722 828.222,219.778 828.667,219.333 C828.722,219.278 828.778,218.222 828.333,218.667 M124,219 L125,220 L124,219 M126.333,219.667 C126.278,219.722 126.222,220.778 126.667,220.333 C126.722,220.278 126.778,219.222 126.333,219.667 M587,219 L588,220 L587,219 M617,219 L618,220 L617,219 M710,219 L711,220 L710,219 M868.333,219.667 C868.278,219.722 868.222,220.778 868.667,220.333 C868.722,220.278 868.778,219.222 868.333,219.667 M77,220 L78,221 L77,220 M313,220 L314,221 L313,220 M345,220 L346,221 L345,220 M740,220 L741,221 L740,220 M37,221 L38,222 L37,221 M166.333,221.667 C166.278,221.722 166.222,222.778 166.667,222.333 C166.722,222.278 166.778,221.222 166.333,221.667 M196,221 L197,222 L196,221 M344,221 L345,222 L344,221 M782,221 L783,222 L782,221 M123,222 L124,223 L123,222 M312,222 L313,223 L312,222 M343,222 L344,223 L343,222 M589,222 L590,223 L589,222 M618,222 L619,223 L618,222 M709,222 L710,223 L709,222 M739,222 L740,223 L739,222 M780,222 L780,225 C780.696,223.446 780.696,223.554 780,222 M829.333,222.667 C829.278,222.722 829.222,223.778 829.667,223.333 C829.722,223.278 829.778,222.222 829.333,222.667 M783,223 L784,224 L783,223 M36,224 L36,227 C36.6961,225.446 36.6961,225.554 36,224 M167,224 L168,225 L167,224 M197,224 L198,225 L197,224 M311,224 L312,225 L311,224 M590,224 L591,225 L590,224 M619,224 L620,225 L619,224 M125,225 L126,226 L125,225 M341,225 L342,226 L341,225 M708,225 L709,226 L708,225 M738,225 L739,226 L738,225 M121,226 L122,227 L121,226 M198,226 L199,227 L198,226 M310,226 L311,227 L310,226 M591,226 L592,227 L591,226 M784,226 L785,227 L784,226 M830,226 L831,227 L830,226 M75.3333,227.667 C75.2778,227.722 75.2222,228.778 75.6667,228.333 C75.7223,228.278 75.7777,227.222 75.3333,227.667 M168,227 L169,228 L168,227 M620,227 L621,228 L620,227 M707,227 L708,228 L707,227 M309,228 L310,229 L309,228 M339,228 L340,229 L339,228 M592,228 L593,229 L592,228 M737,228 L738,229 L737,228 M785,228 L786,229 L785,228 M870.333,228.667 C870.278,228.722 870.222,229.778 870.667,229.333 C870.722,229.278 870.778,228.222 870.333,228.667 M35,229 L36,230 L35,229 M120,229 L121,230 L120,229 M169,229 L170,230 L169,229 M199,229 L200,230 L199,229 M781,229 L782,230 L781,229 M74.3333,230.667 C74.2777,230.722 74.2222,231.778 74.6667,231.333 C74.7223,231.278 74.7778,230.222 74.3333,230.667 M124.333,230.667 C124.278,230.722 124.222,231.778 124.667,231.333 C124.722,231.278 124.778,230.222 124.333,230.667 M308,230 L309,231 L308,230 M338,230 L339,231 L338,230 M593,230 L594,231 L593,230 M621,230 L622,231 L621,230 M706,230 L707,231 L706,230 M736.333,230.667 C736.278,230.722 736.222,231.778 736.667,231.333 C736.722,231.278 736.778,230.222 736.333,230.667 M831,230 L832,231 L831,230 M786,231 L787,232 L786,231 M119,232 L120,233 L119,232 M170,232 L171,233 L170,232 M307.333,232.667 C307.278,232.722 307.222,233.778 307.667,233.333 C307.722,233.278 307.778,232.222 307.333,232.667 M622.333,232.667 C622.278,232.722 622.222,233.778 622.667,233.333 C622.722,233.278 622.778,232.222 622.333,232.667 M705,232 L706,233 L705,232 M871.333,232.667 C871.278,232.722 871.222,233.778 871.667,233.333 C871.722,233.278 871.778,232.222 871.333,232.667 M336,233 L337,234 L336,233 M594,233 L595,234 L594,233 M735,233 L736,234 L735,233 M787.333,233.667 C787.278,233.722 787.222,234.778 787.667,234.333 C787.722,234.278 787.778,233.222 787.333,233.667 M34,234 L34,237 C34.6961,235.446 34.6961,235.554 34,234 M118,234 L119,235 L118,234 M201,234 L202,235 L201,234 M782,234 L782,238 C782.71,236.241 782.71,235.759 782,234 M832,234 L833,235 L832,234 M73.3333,235.667 C73.2778,235.722 73.2222,236.778 73.6667,236.333 C73.7223,236.278 73.7778,235.222 73.3333,235.667 M171,235 L172,236 L171,235 M306,235 L307,236 L306,235 M335,235 L336,236 L335,235 M704,235 L705,236 L704,235 M734,235 L735,236 L734,235 M623,236 L624,237 L623,236 M788,236 L789,237 L788,236 M117.333,237.667 C117.278,237.722 117.222,238.778 117.667,238.333 C117.722,238.278 117.778,237.222 117.333,237.667 M172,237 L173,238 L172,237 M202,237 L203,238 L202,237 M305,237 L306,238 L305,237 M334,237 L335,238 L334,237 M703,237 L704,238 L703,237 M872,237 L872,240 C872.696,238.446 872.696,238.554 872,237 M596,238 L597,239 L596,238 M733,238 L734,239 L733,238 M833.333,238.667 C833.278,238.722 833.222,239.778 833.667,239.333 C833.722,239.278 833.778,238.222 833.333,238.667 M203,239 L204,240 L203,239 M624.333,239.667 C624.278,239.722 624.222,240.778 624.667,240.333 C624.722,240.278 624.778,239.222 624.333,239.667 M789,239 L790,240 L789,239 M33.3333,240.667 C33.2779,240.722 33.2221,241.778 33.6667,241.333 C33.7224,241.278 33.7777,240.222 33.3333,240.667 M72.3333,240.667 C72.2778,240.722 72.2222,241.778 72.6667,241.333 C72.7223,241.278 72.7777,240.222 72.3333,240.667 M116.333,240.667 C116.278,240.722 116.222,241.778 116.667,241.333 C116.722,241.278 116.778,240.222 116.333,240.667 M123,240 L123,259 C125.02,254.187 125.02,244.813 123,240 M304,240 L305,241 L304,240 M702,240 L703,241 L702,240 M732.333,240.667 C732.278,240.722 732.222,241.778 732.667,241.333 C732.722,241.278 732.778,240.222 732.333,240.667 M204,241 L205,242 L204,241 M332,241 L333,242 L332,241 M597,241 L598,242 L597,241 M174,242 L175,243 L174,242 M701,242 L702,243 L701,242 M790.333,242.667 C790.278,242.722 790.222,243.778 790.667,243.333 C790.722,243.278 790.778,242.222 790.333,242.667 M115.333,243.667 C115.278,243.722 115.222,244.778 115.667,244.333 C115.722,244.278 115.778,243.222 115.333,243.667 M303,243 L304,244 L303,243 M625,243 L626,244 L625,243 M731,243 L732,244 L731,243 M834.333,243.667 C834.278,243.722 834.222,244.778 834.667,244.333 C834.722,244.278 834.778,243.222 834.333,243.667 M71,244 L71,247 C71.6961,245.446 71.6961,245.554 71,244 M175,244 L176,245 L175,244 M205,244 L206,245 L205,244 M598,244 L599,245 L598,244 M302.333,245.667 C302.278,245.722 302.222,246.778 302.667,246.333 C302.722,246.278 302.778,245.222 302.333,245.667 M700,245 L701,246 L700,245 M730,245 L731,246 L730,245 M873,245 L874,246 L873,245 M32,246 L32,251 C32.8299,248.97 32.8299,248.03 32,246 M206,246 L207,247 L206,246 M330,246 L331,247 L330,246 M791,246 L792,247 L791,246 M114,247 L115,248 L114,247 M176,247 L177,248 L176,247 M626,247 L627,248 L626,247 M699,247 L700,248 L699,247 M301.333,248.667 C301.278,248.722 301.222,249.778 301.667,249.333 C301.722,249.278 301.778,248.222 301.333,248.667 M329,248 L330,249 L329,248 M835.333,248.667 C835.277,248.722 835.222,249.778 835.667,249.333 C835.722,249.278 835.778,248.222 835.333,248.667 M177,249 L178,250 L177,249 M207,249 L208,250 L207,249 M698,249 L699,250 L698,249 M792.333,249.667 C792.278,249.722 792.222,250.778 792.667,250.333 C792.722,250.278 792.778,249.222 792.333,249.667 M70.3333,250.667 C70.2777,250.722 70.2223,251.778 70.6667,251.333 C70.7221,251.278 70.7778,250.222 70.3333,250.667 M113.333,250.667 C113.278,250.722 113.222,251.778 113.667,251.333 C113.722,251.278 113.778,250.222 113.333,250.667 M728,250 L729,251 L728,250 M874,250 L874,254 C874.71,252.24 874.71,251.76 874,250 M208,251 L209,252 L208,251 M328,251 L329,252 L328,251 M600.333,251.667 C600.278,251.722 600.222,252.778 600.667,252.333 C600.722,252.278 600.778,251.222 600.333,251.667 M627.333,251.667 C627.278,251.722 627.222,252.778 627.667,252.333 C627.722,252.278 627.778,251.222 627.333,251.667 M300.333,252.667 C300.278,252.722 300.222,253.778 300.667,253.333 C300.722,253.278 300.778,252.222 300.333,252.667 M727,252 L728,253 L727,252 M209,253 L210,254 L209,253 M793,253 L794,254 L793,253 M31,254 L31,258 C31.7102,256.241 31.7102,255.76 31,254 M112.333,254.667 C112.278,254.722 112.222,255.778 112.667,255.333 C112.722,255.278 112.778,254.222 112.333,254.667 M179,254 L180,255 L179,254 M327,254 L328,255 L327,254 M354,254 C357.711,267.875 363.369,281.229 367.445,295 C369.145,300.742 371.268,306.307 373.113,312 C374.182,315.298 374.554,318.974 376.703,321.815 C380.565,326.919 388.574,329.802 394,332.989 C402.916,338.226 412.01,343.17 421,348.281 C426.475,351.393 431.983,355.096 438,357 C433.734,342.193 424.737,328 418.309,314 C415.385,307.634 412.196,301.381 409.312,295 C407.803,291.662 406.821,288.042 404.442,285.174 C399.827,279.609 392.101,276.263 386,272.6 C375.909,266.542 365.211,257.549 354,254 M583,254 C572.346,260.544 561.614,266.966 551,273.576 C546.084,276.638 539.478,279.295 535.39,283.39 C529.594,289.199 526.458,300.552 523.139,308 C516.089,323.818 505.007,340.13 501,357 C515.55,350.942 529.403,341.931 543,333.988 C548.649,330.689 556.953,327.556 561.182,322.471 C563.983,319.104 564.942,314.055 566.344,310 C569.434,301.062 572.492,292.044 575.283,283 C577.354,276.29 579.831,269.72 581.883,263 C582.842,259.861 584.094,257.155 583,254 M696,254 L697,255 L696,254 M726.333,254.667 C726.278,254.722 726.222,255.778 726.667,255.333 C726.722,255.278 726.778,254.222 726.333,254.667 M836.333,254.667 C836.278,254.722 836.222,255.778 836.667,255.333 C836.722,255.278 836.778,254.222 836.333,254.667 M69,256 L69,259 C69.6961,257.446 69.6961,257.554 69,256 M180,256 L181,257 L180,256 M299.333,256.667 C299.278,256.722 299.222,257.778 299.667,257.333 C299.722,257.278 299.778,256.222 299.333,256.667 M601.333,256.667 C601.278,256.722 601.222,257.778 601.667,257.333 C601.722,257.278 601.778,256.222 601.333,256.667 M628,256 L628,259 C628.696,257.446 628.696,257.554 628,256 M695,256 L696,257 L695,256 M326,257 L327,258 L326,257 M725,257 L726,258 L725,257 M794.333,257.667 C794.278,257.722 794.222,258.778 794.667,258.333 C794.722,258.278 794.778,257.222 794.333,257.667 M111.333,258.667 C111.278,258.722 111.222,259.778 111.667,259.333 C111.722,259.278 111.778,258.222 111.333,258.667 M181,258 L182,259 L181,258 M694,258 L695,259 L694,258 M724,259 L725,260 L724,259 M782,259 L782,264 C782.83,261.97 782.83,261.03 782,259 M837,259 L837,262 C837.696,260.446 837.696,260.554 837,259 M875,259 L875,264 C875.83,261.97 875.83,261.03 875,259 M68,260 L68,264 C68.7102,262.24 68.7102,261.76 68,260 M298.333,260.667 C298.278,260.722 298.222,261.778 298.667,261.333 C298.722,261.278 298.778,260.222 298.333,260.667 M325.333,260.667 C325.278,260.722 325.222,261.778 325.667,261.333 C325.722,261.278 325.778,260.222 325.333,260.667 M693,260 L694,261 L693,260 M602,261 L603,262 L602,261 M723,261 L724,262 L723,261 M213,262 L214,263 L213,262 M795.333,262.667 C795.278,262.722 795.222,263.778 795.667,263.333 C795.722,263.278 795.778,262.222 795.333,262.667 M722,263 L723,264 L722,263 M30,264 L30,269 C30.8299,266.969 30.8299,266.031 30,264 M110.333,264.667 C110.278,264.722 110.222,265.778 110.667,265.333 C110.722,265.278 110.778,264.222 110.333,264.667 M297,264 L297,267 C297.696,265.446 297.696,265.554 297,264 M324.333,264.667 C324.278,264.722 324.222,265.778 324.667,265.333 C324.722,265.278 324.778,264.222 324.333,264.667 M629.333,264.667 C629.278,264.722 629.222,265.778 629.667,265.333 C629.722,265.278 629.778,264.222 629.333,264.667 M184,265 L185,266 L184,265 M691,265 L692,266 L691,265 M721,265 L722,266 L721,265 M215,266 L216,267 L215,266 M603,266 L603,269 C603.696,267.446 603.696,267.554 603,266 M124,267 L124,270 C124.696,268.446 124.696,268.554 124,267 M185,267 L186,268 L185,267 M690,267 L691,268 L690,267 M838.333,267.667 C838.277,267.722 838.222,268.778 838.667,268.333 C838.722,268.278 838.778,267.222 838.333,267.667 M216,268 L217,269 L216,268 M67,269 L68,270 L67,269 M186,269 L187,270 L186,269 M323,269 L324,270 L323,269 M689,269 L690,270 L689,269 M781,269 L782,270 L781,269 M796,269 L797,270 L796,269 M109.333,270.667 C109.278,270.722 109.222,271.778 109.667,271.333 C109.722,271.278 109.778,270.222 109.333,270.667 M217,270 L218,271 L217,270 M630,270 L630,276 C630.951,273.715 630.951,272.285 630,270 M719,270 L720,271 L719,270 M187,271 L188,272 L187,271 M688,271 L689,272 L688,271 M218,272 L219,273 L218,272 M188,273 L189,274 L188,273 M687,273 L688,274 L687,273 M876,273 L876,283 C877.346,279.793 877.346,276.207 876,273 M125,274 L126,275 L125,274 M219,274 L220,275 L219,274 M322.333,274.667 C322.278,274.722 322.222,275.778 322.667,275.333 C322.722,275.278 322.778,274.222 322.333,274.667 M717,274 L718,275 L717,274 M29,275 L29,307 C31.599,300.806 30.0004,291.686 30,285 C29.9998,281.581 30.3283,278.166 29,275 M66,275 L66,280 C66.8299,277.97 66.8299,277.03 66,275 M189,275 L190,276 L189,275 M686,275 L687,276 L686,275 M780,275 L780,278 C780.696,276.446 780.696,276.554 780,275 M839.333,275.667 C839.278,275.722 839.222,276.778 839.667,276.333 C839.722,276.278 839.778,275.222 839.333,275.667 M220,276 L221,277 L220,276 M716,276 L717,277 L716,276 M797,276 L797,288 C798.512,284.396 798.512,279.604 797,276 M190,277 L191,278 L190,277 M295,277 L295,283 C295.951,280.715 295.951,279.285 295,277 M604,277 L604,282 C604.83,279.97 604.83,279.03 604,277 M685,277 L686,278 L685,277 M126.333,278.667 C126.278,278.722 126.222,279.778 126.667,279.333 C126.722,279.278 126.778,278.222 126.333,278.667 M221,278 L222,279 L221,278 M715,278 L716,279 L715,278 M191,279 L192,280 L191,279 M684,279 L685,280 L684,279 M222,280 L223,281 L222,280 M192,281 L193,282 L192,281 M683,281 L684,282 L683,281 M713,281 L714,282 L713,281 M779.333,281.667 C779.278,281.722 779.222,282.778 779.667,282.333 C779.722,282.278 779.778,281.222 779.333,281.667 M223,282 L224,283 L223,282 M321,282 L321,285 C321.696,283.446 321.696,283.554 321,282 M840,282 L840,286 C840.71,284.24 840.71,283.76 840,282 M193,283 L194,284 L193,283 M682,283 L683,284 L682,283 M65,284 L65,291 C66.0595,288.466 66.0595,286.534 65,284 M127.333,284.667 C127.278,284.722 127.222,285.778 127.667,285.333 C127.722,285.278 127.778,284.222 127.333,284.667 M224,284 L225,285 L224,284 M681,285 L682,286 L681,285 M225,286 L226,287 L225,286 M778,286 L779,287 L778,286 M680,287 L681,288 L680,287 M128.333,288.667 C128.278,288.722 128.222,289.778 128.667,289.333 C128.722,289.278 128.778,288.222 128.333,288.667 M196,288 L197,289 L196,288 M226,288 L227,289 L226,288 M679,289 L680,290 L679,289 M709,289 L710,290 L709,289 M109,290 L109,293 C109.696,291.446 109.696,291.554 109,290 M197,290 L198,291 L197,290 M227,290 L228,291 L227,290 M777,290 L778,291 L777,290 M294,291 L294,299 C295.161,296.23 295.161,293.77 294,291 M708,291 L709,292 L708,291 M129,292 L130,293 L129,292 M198,292 L199,293 L198,292 M677,292 L678,293 L677,292 M707,293 L708,294 L707,293 M776,293 L777,294 L776,293 M796,293 L797,294 L796,293 M841,293 L841,299 C841.951,296.715 841.951,295.285 841,293 M199,294 L200,295 L199,294 M676,294 L677,295 L676,294 M706,294 L707,295 L706,294 M110,296 L111,297 L110,296 M200,296 L201,297 L200,296 M320,296 L320,303 C321.059,300.466 321.059,298.534 320,296 M675,296 L676,297 L675,296 M705,296 L706,297 L705,296 M775.333,296.667 C775.277,296.723 775.222,297.778 775.667,297.333 C775.722,297.278 775.778,296.222 775.333,296.667 M201,297 L202,298 L201,297 M231,297 L232,298 L231,297 M795.333,297.667 C795.278,297.722 795.222,298.778 795.667,298.333 C795.722,298.278 795.778,297.222 795.333,297.667 M674,298 L675,299 L674,298 M704,298 L705,299 L704,298 M111.333,299.667 C111.278,299.722 111.222,300.778 111.667,300.333 C111.722,300.278 111.778,299.222 111.333,299.667 M131,299 L132,300 L131,299 M202,299 L203,300 L202,299 M232,299 L233,300 L232,299 M673,299 L674,300 L673,299 M703,300 L704,301 L703,300 M774,300 L775,301 L774,300 M876,300 L876,309 C877.256,306.006 877.256,302.994 876,300 M64,301 L64,313 C65.5124,309.396 65.5124,304.604 64,301 M203,301 L204,302 L203,301 M604,301 L604,306 C604.83,303.97 604.83,303.03 604,301 M672,301 L673,302 L672,301 M132,302 L133,303 L132,302 M110.667,303.333 C110.222,303.778 111.278,303.722 111.333,303.667 C111.778,303.222 110.722,303.278 110.667,303.333 M671,303 L672,304 L671,303 M701,303 L702,304 L701,303 M773,303 L774,304 L773,303 M794,303 C795.248,303.685 795.548,303.749 797,304 C795.752,303.315 795.452,303.251 794,303 M104,304 C105.248,304.685 105.548,304.749 107,305 C105.752,304.315 105.452,304.251 104,304 M205,304 L206,305 L205,304 M100.667,305.333 C100.222,305.778 101.278,305.722 101.333,305.667 C101.778,305.222 100.722,305.278 100.667,305.333 M133,305 L134,306 L133,305 M670,305 L671,306 L670,305 M700,305 L701,306 L700,305 M804.667,305.333 C804.222,305.778 805.278,305.722 805.333,305.667 C805.778,305.222 804.722,305.278 804.667,305.333 M96.6667,306.333 C96.2223,306.778 97.2778,306.722 97.3333,306.667 C97.7778,306.222 96.7222,306.278 96.6667,306.333 M206,306 L207,307 L206,306 M236,306 L237,307 L236,306 M630,306 L630,312 C630.951,309.715 630.951,308.285 630,306 M772,306 L773,307 L772,306 M809.667,306.333 C809.223,306.777 810.278,306.722 810.333,306.667 C810.778,306.222 809.722,306.278 809.667,306.333 M91.6667,307.333 C91.2223,307.778 92.2777,307.722 92.3333,307.667 C92.7779,307.222 91.7222,307.278 91.6667,307.333 M86.6667,308.333 C86.2223,308.778 87.2777,308.722 87.3333,308.667 C87.7779,308.222 86.7222,308.278 86.6667,308.333 M134,308 L135,309 L134,308 M207,308 L208,309 L207,308 M668,308 L669,309 L668,308 M698,308 L699,309 L698,308 M771.333,308.667 C771.278,308.722 771.222,309.778 771.667,309.333 C771.722,309.278 771.778,308.222 771.333,308.667 M818,308 L819,309 L818,308 M80,309 C81.2483,309.685 81.5485,309.749 83,310 C81.7516,309.315 81.4516,309.251 80,309 M822,309 C823.248,309.685 823.548,309.749 825,310 C823.752,309.315 823.452,309.251 822,309 M77,310 L78,311 L77,310 M135,310 L136,311 L135,310 M209.333,310.667 C209.278,310.722 209.222,311.778 209.667,311.333 C209.722,311.278 209.778,310.222 209.333,310.667 M603,310 L603,315 C603.83,312.97 603.83,312.03 603,310 M667,310 L668,311 L667,310 M697,310 L698,311 L697,310 M828.667,310.333 C828.223,310.777 829.278,310.722 829.333,310.667 C829.778,310.222 828.722,310.278 828.667,310.333 M72.6667,311.333 C72.2223,311.778 73.2778,311.722 73.3333,311.667 C73.7778,311.222 72.7222,311.278 72.6667,311.333 M239,311 L240,312 L239,311 M770,311 L771,312 L770,311 M832.667,311.333 C832.223,311.777 833.278,311.722 833.333,311.667 C833.778,311.222 832.722,311.278 832.667,311.333 M67,312 C68.506,312.683 69.3148,312.826 71,313 C69.4939,312.317 68.6852,312.174 67,312 M837,312 L838,313 L837,312 M136,313 L137,314 L136,313 M240,313 L241,314 L240,313 M665,313 L666,314 L665,313 M695,313 L696,314 L695,313 M769,313 L770,314 L769,313 M211,314 L212,315 L211,314 M30,315 L30,320 C30.8299,317.97 30.8299,317.03 30,315 M137,315 L138,316 L137,315 M664,315 L665,316 L664,315 M212,316 L213,317 L212,316 M242,316 L243,317 L242,316 M320,316 L320,323 C321.059,320.466 321.059,318.534 320,316 M768,316 L769,317 L768,316 M629,317 L630,318 L629,317 M602.333,318.667 C602.278,318.722 602.222,319.778 602.667,319.333 C602.722,319.278 602.778,318.222 602.333,318.667 M662,318 L663,319 L662,318 M692,318 L693,319 L692,318 M767,318 L768,319 L767,318 M875,318 L875,323 C875.83,320.97 875.83,320.03 875,318 M214,319 L215,320 L214,319 M294,320 L294,328 C295.161,325.23 295.161,322.77 294,320 M661,320 L662,321 L661,320 M766.333,320.667 C766.278,320.722 766.222,321.778 766.667,321.333 C766.722,321.278 766.778,320.222 766.333,320.667 M245,321 L246,322 L245,321 M690,321 L691,322 L690,321 M140,322 L141,323 L140,322 M216,322 L217,323 L216,322 M628.333,322.667 C628.278,322.722 628.222,323.778 628.667,323.333 C628.722,323.278 628.778,322.222 628.333,322.667 M601,323 L602,324 L601,323 M659,323 L660,324 L659,323 M765,323 L766,324 L765,323 M141,324 L142,325 L141,324 M247,324 L248,325 L247,324 M688,324 L689,325 L688,324 M31,325 L31,331 C31.9511,328.715 31.9511,327.285 31,325 M218,325 L219,326 L218,325 M764,325 L765,326 L764,325 M142,326 L143,327 L142,326 M248,326 L249,327 L248,326 M657,326 L658,327 L657,326 M687,326 L688,327 L687,326 M600,327 L601,328 L600,327 M763,327 L764,328 L763,327 M143,328 L144,329 L143,328 M220,328 L221,329 L220,328 M627,328 L628,329 L627,328 M250,329 L251,330 L250,329 M655,329 L656,330 L655,329 M685,329 L686,330 L685,329 M144,330 L145,331 L144,330 M222,331 L223,332 L222,331 M599,331 L600,332 L599,331 M654,331 L655,332 L654,331 M761,331 L762,332 L761,331 M874.333,331.667 C874.278,331.722 874.222,332.778 874.667,332.333 C874.722,332.278 874.778,331.222 874.333,331.667 M145,332 L146,333 L145,332 M252,332 L253,333 L252,332 M626,332 L627,333 L626,332 M253,333 L254,334 L253,333 M321,333 L321,336 C321.696,334.446 321.696,334.554 321,333 M682,333 L683,334 L682,333 M146,334 L147,335 L146,334 M224,334 L225,335 L224,334 M598,334 L599,335 L598,334 M652,334 L653,335 L652,334 M759,334 L760,335 L759,334 M254,335 L255,336 L254,335 M32.3333,336.667 C32.2778,336.722 32.2222,337.778 32.6667,337.333 C32.7222,337.278 32.7778,336.222 32.3333,336.667 M106,336 C107.248,336.685 107.548,336.749 109,337 C107.752,336.315 107.452,336.251 106,336 M125,336 C127.052,336.874 128.747,336.953 131,337 C128.948,336.126 127.253,336.047 125,336 M295,336 L295,342 C295.951,339.715 295.951,338.285 295,336 M680,336 L681,337 L680,336 M758,336 L759,337 L758,336 M776,336 C777.769,336.779 779.036,336.912 781,337 C779.231,336.221 777.964,336.088 776,336 M795,336 C796.769,336.779 798.036,336.912 800,337 C798.231,336.221 796.964,336.088 795,336 M100.667,337.333 C100.222,337.778 101.278,337.722 101.333,337.667 C101.778,337.222 100.722,337.278 100.667,337.333 M134.667,337.333 C134.222,337.778 135.278,337.722 135.333,337.667 C135.778,337.222 134.722,337.278 134.667,337.333 M148,337 L149,338 L148,337 M226,337 L227,338 L226,337 M597,337 L598,338 L597,337 M650,337 L651,338 L650,337 M770,337 L771,338 L770,337 M804.667,337.333 C804.222,337.778 805.278,337.722 805.333,337.667 C805.778,337.222 804.722,337.278 804.667,337.333 M96.6667,338.333 C96.2223,338.778 97.2778,338.722 97.3333,338.667 C97.7779,338.222 96.7222,338.278 96.6667,338.333 M140,338 L141,339 L140,338 M256,338 L257,339 L256,338 M757,338 L758,339 L757,338 M765.667,338.333 C765.222,338.778 766.278,338.722 766.333,338.667 C766.778,338.222 765.722,338.278 765.667,338.333 M809.667,338.333 C809.223,338.777 810.278,338.722 810.333,338.667 C810.778,338.222 809.722,338.278 809.667,338.333 M92.6667,339.333 C92.2223,339.778 93.2778,339.722 93.3333,339.667 C93.7778,339.222 92.7222,339.278 92.6667,339.333 M144,339 L145,340 L144,339 M149,339 L150,340 L149,339 M257,339 L258,340 L257,339 M624,339 L625,340 L624,339 M678,339 L679,340 L678,339 M761.667,339.333 C761.223,339.777 762.277,339.722 762.333,339.667 C762.778,339.222 761.722,339.278 761.667,339.333 M813,339 L814,340 L813,339 M89,340 L90,341 L89,340 M228,340 L229,341 L228,340 M596,340 L597,341 L596,340 M648,340 L649,341 L648,340 M758,340 L759,341 L758,340 M816,340 L817,341 L816,340 M86.6667,341.333 C86.2223,341.778 87.2778,341.722 87.3333,341.667 C87.7779,341.222 86.7222,341.278 86.6667,341.333 M258,341 L259,342 L258,341 M819,341 L820,342 L819,341 M84,342 L85,343 L84,342 M259,342 L260,343 L259,342 M322.333,342.667 C322.278,342.722 322.222,343.778 322.667,343.333 C322.722,343.278 322.778,342.222 322.333,342.667 M595,342 L596,343 L595,342 M623.333,342.667 C623.278,342.722 623.222,343.778 623.667,343.333 C623.722,343.278 623.778,342.222 623.333,342.667 M676,342 L677,343 L676,342 M821,342 L822,343 L821,342 M82,343 L83,344 L82,343 M646,343 L647,344 L646,343 M675,343 L676,344 L675,343 M824,343 L825,344 L824,343 M231,344 L232,345 L231,344 M260,344 L261,345 L260,344 M645,344 L646,345 L645,344 M826,344 L827,345 L826,344 M872.333,344.667 C872.278,344.722 872.222,345.778 872.667,345.333 C872.722,345.278 872.778,344.222 872.333,344.667 M261,345 L262,346 L261,345 M594,345 L595,346 L594,345 M622,345 L623,346 L622,345 M828,345 L829,346 L828,345 M296,346 L296,349 C296.696,347.446 296.696,347.554 296,346 M644,346 L645,347 L644,346 M673,346 L674,347 L673,346 M830,346 L831,347 L830,346 M233,347 L234,348 L233,347 M593,347 L594,348 L593,347 M643,347 L644,348 L643,347 M672,347 L673,348 L672,347 M832,347 L833,348 L832,347 M72,348 L73,349 L72,348 M234,348 L235,349 L234,348 M263,348 L264,349 L263,348 M323,348 L323,352 C323.71,350.24 323.71,349.76 323,348 M621,348 L622,349 L621,348 M833,348 L834,349 L833,348 M34,349 L35,350 L34,349 M70,349 L71,350 L70,349 M592,349 L593,350 L592,349 M835,349 L836,350 L835,349 M69,350 L70,351 L69,350 M264,350 L265,351 L264,350 M641,350 L642,351 L641,350 M670,350 L671,351 L670,350 M236,351 L237,352 L236,351 M265,351 L266,352 L265,351 M620,351 L621,352 L620,351 M838,351 L839,352 L838,351 M66,352 L67,353 L66,352 M237,352 L238,353 L237,352 M297,352 L297,355 C297.696,353.446 297.696,353.554 297,352 M871.333,352.667 C871.278,352.722 871.222,353.778 871.667,353.333 C871.722,353.278 871.778,352.222 871.333,352.667 M590,353 L591,354 L590,353 M619,353 L620,354 L619,353 M639,353 L640,354 L639,353 M35,354 L35,357 C35.6961,355.446 35.6961,355.554 35,354 M63,354 L64,355 L63,354 M267,354 L268,355 L267,354 M638,354 L639,355 L638,354 M667,354 L668,355 L667,354 M842,354 L843,355 L842,354 M62,355 L63,356 L62,355 M239,355 L240,356 L239,355 M268,355 L269,356 L268,355 M324,355 L325,356 L324,355 M589,355 L590,356 L589,355 M666,355 L667,356 L666,355 M240,356 L241,357 L240,356 M618,356 L619,357 L618,356 M845,356 L846,357 L845,356 M588,357 L589,358 L588,357 M636,357 L637,358 L636,357 M846,357 L847,358 L846,357 M870,357 L871,358 L870,357 M270,358 L271,359 L270,358 M298,358 L298,361 C298.696,359.446 298.696,359.554 298,358 M617,358 L618,359 L617,358 M664,358 L665,359 L664,358 M847,358 L848,359 L847,358 M57,359 L58,360 L57,359 M587,359 L588,360 L587,359 M663,359 L664,360 L663,359 M848,359 L849,360 L848,359 M56,360 L57,361 L56,360 M243,360 L244,361 L243,360 M325.333,360.667 C325.278,360.722 325.222,361.778 325.667,361.333 C325.722,361.278 325.778,360.222 325.333,360.667 M616.333,360.667 C616.278,360.722 616.222,361.778 616.667,361.333 C616.722,361.278 616.778,360.222 616.333,360.667 M36,361 L37,362 L36,361 M55,361 L56,362 L55,361 M244,361 L245,362 L244,361 M586,361 L587,362 L586,361 M633,361 L634,362 L633,361 M54,362 L55,363 L54,362 M219.667,362.333 C219.222,362.778 220.278,362.722 220.333,362.667 C220.778,362.222 219.722,362.278 219.667,362.333 M273,362 L274,363 L273,362 M686.667,362.333 C686.222,362.778 687.278,362.722 687.333,362.667 C687.778,362.222 686.722,362.278 686.667,362.333 M869,362 L870,363 L869,362 M53,363 L54,364 L53,363 M210,363 C211.248,363.685 211.548,363.749 213,364 C211.752,363.315 211.452,363.251 210,363 M274,363 L275,364 L274,363 M615,363 L616,364 L615,363 M693,363 L694,364 L693,363 M52,364 L53,365 L52,364 M205,364 L206,365 L205,364 M299.333,364.667 C299.278,364.722 299.222,365.778 299.667,365.333 C299.722,365.278 299.778,364.222 299.333,364.667 M326.333,364.667 C326.278,364.722 326.222,365.778 326.667,365.333 C326.722,365.278 326.778,364.222 326.333,364.667 M584,364 L585,365 L584,364 M631,364 L632,365 L631,364 M699.667,364.333 C699.223,364.777 700.278,364.722 700.333,364.667 C700.778,364.222 699.722,364.278 699.667,364.333 M51,365 L52,366 L51,365 M201.667,365.333 C201.222,365.778 202.278,365.722 202.333,365.667 C202.778,365.222 201.722,365.278 201.667,365.333 M614,365 L615,366 L614,365 M630,365 L631,366 L630,365 M704,365 L705,366 L704,365 M37.3333,366.667 C37.2778,366.722 37.2222,367.778 37.6667,367.333 C37.7222,367.278 37.7778,366.222 37.3333,366.667 M50,366 L51,367 L50,366 M197.667,366.333 C197.222,366.778 198.278,366.722 198.333,366.667 C198.778,366.222 197.722,366.278 197.667,366.333 M276,366 L277,367 L276,366 M583,366 L584,367 L583,366 M707,366 L708,367 L707,366 M855,366 L856,367 L855,366 M868.333,366.667 C868.277,366.722 868.222,367.778 868.667,367.333 C868.722,367.278 868.778,366.222 868.333,366.667 M49,367 L50,368 L49,367 M194.667,367.333 C194.222,367.778 195.278,367.722 195.333,367.667 C195.778,367.222 194.722,367.278 194.667,367.333 M277,367 L278,368 L277,367 M582,367 L583,368 L582,367 M613,367 L614,368 L613,367 M711,367 L712,368 L711,367 M856,367 L857,368 L856,367 M300.333,368.667 C300.278,368.722 300.222,369.778 300.667,369.333 C300.722,369.278 300.778,368.222 300.333,368.667 M327.333,368.667 C327.278,368.722 327.222,369.778 327.667,369.333 C327.722,369.278 327.778,368.222 327.333,368.667 M628,368 L629,369 L628,368 M714,368 L715,369 L714,368 M857,368 L858,369 L857,368 M189,369 L190,370 L189,369 M612,369 L613,370 L612,369 M627,369 L628,370 L627,369 M716,369 L717,370 L716,369 M858,369 L859,370 L858,369 M38.3333,370.667 C38.2777,370.722 38.2223,371.778 38.6667,371.333 C38.7222,371.278 38.7778,370.222 38.3333,370.667 M186,370 L187,371 L186,370 M279,370 L280,371 L279,370 M580,370 L581,371 L580,370 M719,370 L720,371 L719,370 M280,371 L281,372 L280,371 M328.333,371.667 C328.278,371.722 328.222,372.778 328.667,372.333 C328.722,372.278 328.778,371.222 328.333,371.667 M721,371 L722,372 L721,371 M45,372 L46,373 L45,372 M182,372 L183,373 L182,372 M867.333,372.667 C867.278,372.722 867.222,373.778 867.667,373.333 C867.722,373.278 867.778,372.222 867.333,372.667 M180,373 L181,374 L180,373 M301,373 L302,374 L301,373 M578,373 L579,374 L578,373 M624,373 L625,374 L624,373 M861,373 L862,374 L861,373 M39.3333,374.667 C39.2778,374.722 39.2223,375.778 39.6667,375.333 C39.7222,375.278 39.7778,374.222 39.3333,374.667 M178,374 L179,375 L178,374 M282,374 L283,375 L282,374 M329.333,374.667 C329.278,374.722 329.222,375.778 329.667,375.333 C329.722,375.278 329.778,374.222 329.333,374.667 M609,374 L610,375 L609,374 M623,374 L624,375 L623,374 M43,375 L44,376 L43,375 M176,375 L177,376 L176,375 M283,375 L284,376 L283,375 M729,375 L730,376 L729,375 M42,376 L43,377 L42,376 M284,376 L285,377 L284,376 M302.333,376.667 C302.278,376.722 302.222,377.778 302.667,377.333 C302.722,377.278 302.778,376.222 302.333,376.667 M608,376 L609,377 L608,376 M731,376 L732,377 L731,376 M866.333,376.667 C866.278,376.722 866.222,377.778 866.667,377.333 C866.722,377.278 866.778,376.222 866.333,376.667 M173,377 L174,378 L173,377 M285,377 L286,378 L285,377 M575,377 L576,378 L575,377 M864,377 L865,378 L864,377 M41,378 L42,379 L41,378 M330,378 L331,379 L330,378 M620,378 L621,379 L620,378 M734,378 L735,379 L734,378 M40,379 L41,380 L40,379 M170,379 L171,380 L170,379 M606,379 L607,380 L606,379 M619,379 L620,380 L619,379 M287,380 L288,381 L287,380 M303,380 L304,381 L303,380 M573,380 L574,381 L573,380 M737,380 L738,381 L737,380 M167,381 L168,382 L167,381 M288,381 L289,382 L288,381 M331,381 L332,382 L331,381 M572,381 L573,382 L572,381 M605,381 L606,382 L605,381 M738,381 L739,382 L738,381 M166,382 L167,383 L166,382 M304.333,382.667 C304.278,382.722 304.222,383.778 304.667,383.333 C304.722,383.278 304.778,382.222 304.333,382.667 M165,383 L166,384 L165,383 M332,383 L333,384 L332,383 M616,383 L617,384 L616,383 M570,384 L571,385 L570,384 M603,384 L604,385 L603,384 M615,384 L616,385 L615,384 M742,384 L743,385 L742,384 M291,385 L292,386 L291,385 M569,385 L570,386 L569,385 M602,385 L603,386 L602,385 M614,385 L615,386 L614,385 M743,385 L744,386 L743,385 M161,386 L162,387 L161,386 M292,386 L293,387 L292,386 M305,386 L306,387 L305,386 M568,386 L569,387 L568,386 M744,386 L745,387 L744,386 M163,387 C165.332,387.985 167.457,387.981 170,388 C167.668,387.015 165.543,387.019 163,387 M216,387 C217.769,387.779 219.036,387.912 221,388 C219.231,387.221 217.964,387.088 216,387 M293,387 L294,388 L293,387 M601,387 L602,388 L601,387 M683,387 C685.331,387.985 687.457,387.981 690,388 C687.668,387.015 685.543,387.019 683,387 M737,387 C739.052,387.874 740.747,387.953 743,388 C740.948,387.126 739.253,387.047 737,387 M745,387 L746,388 L745,387 M230,388 C231.769,388.779 233.036,388.912 235,389 C233.231,388.221 231.964,388.088 230,388 M334,388 L335,389 L334,388 M600,388 L601,389 L600,388 M672,388 C673.769,388.779 675.036,388.912 677,389 C675.231,388.221 673.964,388.088 672,388 M306,389 L307,390 L306,389 M566,389 L567,390 L566,389 M611,389 L612,390 L611,389 M661,389 C662.248,389.685 662.548,389.749 664,390 C662.752,389.315 662.452,389.251 661,389 M248.667,390.333 C248.222,390.778 249.278,390.722 249.333,390.667 C249.778,390.222 248.722,390.278 248.667,390.333 M335,390 L336,391 L335,390 M565,390 L566,391 L565,390 M599,390 L600,391 L599,390 M610,390 L611,391 L610,390 M656.667,390.333 C656.222,390.778 657.278,390.722 657.333,390.667 C657.778,390.222 656.722,390.278 656.667,390.333 M254,391 C255.506,391.683 256.315,391.826 258,392 C256.494,391.317 255.685,391.174 254,391 M564,391 L565,392 L564,391 M609,391 L610,392 L609,391 M648,391 C649.248,391.685 649.548,391.749 651,392 C649.752,391.315 649.452,391.251 648,391 M261,392 L262,393 L261,392 M297,392 L298,393 L297,392 M307,392 L308,393 L307,392 M336,392 L337,393 L336,392 M608,392 L609,393 L608,392 M643,392 C644.248,392.685 644.548,392.749 646,393 C644.752,392.315 644.452,392.251 643,392 M266,393 L267,394 L266,393 M298,393 L299,394 L298,393 M638.667,393.333 C638.222,393.778 639.278,393.722 639.333,393.667 C639.778,393.222 638.722,393.278 638.667,393.333 M270.667,394.333 C270.222,394.778 271.278,394.722 271.333,394.667 C271.778,394.222 270.722,394.278 270.667,394.333 M299,394 L300,395 L299,394 M308,394 L309,395 L308,394 M337,394 L338,395 L337,394 M596,394 L597,395 L596,394 M634.667,394.333 C634.222,394.778 635.278,394.722 635.333,394.667 C635.778,394.222 634.722,394.278 634.667,394.333 M275,395 L276,396 L275,395 M300,395 L301,396 L300,395 M561,395 L562,396 L561,395 M595,395 L596,396 L595,395 M630,395 L631,396 L630,395 M278.667,396.333 C278.222,396.778 279.278,396.722 279.333,396.667 C279.778,396.222 278.722,396.278 278.667,396.333 M338,396 L339,397 L338,396 M560,396 L561,397 L560,396 M627,396 L628,397 L627,396 M282,397 L283,398 L282,397 M309,397 L310,398 L309,397 M559,397 L560,398 L559,397 M604,397 L605,398 L604,397 M623,397 L624,398 L623,397 M285,398 L286,399 L285,398 M339,398 L340,399 L339,398 M593,398 L594,399 L593,398 M603,398 L604,399 L603,398 M620,398 L621,399 L620,398 M288,399 L289,400 L288,399 M310,399 L311,400 L310,399 M592,399 L593,400 L592,399 M602,399 L603,400 L602,399 M617,399 L618,400 L617,399 M291,400 L292,401 L291,400 M340,400 L341,401 L340,400 M601,400 L602,401 L601,400 M614.667,400.333 C614.222,400.778 615.278,400.722 615.333,400.667 C615.778,400.222 614.722,400.278 614.667,400.333 M294,401 L295,402 L294,401 M305,401 L306,402 L305,401 M341,401 L342,402 L341,401 M556,401 L557,402 L556,401 M600,401 L601,402 L600,401 M612,401 L613,402 L612,401 M296,402 L297,403 L296,402 M555,402 L556,403 L555,402 M609,402 L610,403 L609,402 M298,403 L299,404 L298,403 M307,403 L308,404 L307,403 M342,403 L343,404 L342,403 M589,403 L590,404 L589,403 M607,403 L608,404 L607,403 M301,404 L302,405 L301,404 M308,404 L309,405 L308,404 M588,404 L589,405 L588,404 M605,404 L606,405 L605,404 M303,405 L304,406 L303,405 M309,405 L310,406 L309,405 M603,405 L604,406 L603,405 M313,406 L314,407 L313,406 M344,406 L345,407 L344,406 M552,406 L553,407 L552,406 M601,406 L602,407 L601,406 M306,407 L307,408 L306,407 M551,407 L552,408 L551,407 M599,407 L600,408 L599,407 M308,408 L309,409 L308,408 M314,408 L315,409 L314,408 M585,408 L586,409 L585,408 M597,408 L598,409 L597,408 M310,409 L311,410 L310,409 M346,409 L347,410 L346,409 M584,409 L585,410 L584,409 M583,410 L584,411 L583,410 M594,410 L595,411 L594,410 M548,411 L549,412 L548,411 M314,412 L315,413 L314,412 M547,412 L548,413 L547,412 M591,412 L592,413 L591,412 M349,413 L350,414 L349,413  z "></path></svg>